User Type,Username,Date,Text
[T],xCrazy0328x,2012-07-27T14:02Z,"Screens:


http://www.awsomedownloads.com/tam_ts_crewside.html"
,goofy113,2012-07-27T14:12Z,"thx for the up. but just a thought it will be easier for the users here if you put some info on the quality
source, audio and such in the info for us to read.

anyways thanks for the upload"
[T],xCrazy0328x,2012-07-27T16:11Z,"Resolution: 720 x 304
Runtime: 2h 1mn
Release Date: Na
Theatre Date: 3 July 2012 (USA)
Language: English
Subtitles: No
IMDB Rating: 7.7
IMDb URL: http://www.imdb.com/title/tt0948470/

General
Complete name: The Amazing Spiderman 2012 Worked Audio Complete HD Cam CrEwSaDeThe Amazing Spiderman 2012 Worked Audio HD Cam CrEwSaDe.mp4
Format: MPEG-4
Format profile: Base Media / Version 2
Codec ID: mp42
File size: 992 MiB
Duration: 2h 1mn
Overall bit rate mode: Variable
Overall bit rate: 1 145 Kbps
Writing application: TMPGEnc Video Mastering Works 5 Version. 5.0.5.32

Video

ID: 2
Format: AVC
Format/Info: Advanced Video Codec
Format profile: High@L3.0
Format settings, CABAC: Yes
Format settings, ReFrames: 3 frames
Codec ID: avc1
Codec ID/Info: Advanced Video Coding
Duration: 2h 1mn
Bit rate mode: Constant
Bit rate: 1 024 Kbps / 1 024 Kbps
Width: 720 pixels
Height: 304 pixels
Display aspect ratio: 2.35:1
Frame rate mode: Constant
Frame rate: 25.000 fps
Standard: NTSC
Color space: YUV
Chroma subsampling: 4:2:0
Bit depth: 8 bits
Scan type: Progressive
Bits/(Pixel*Frame): 0.187
Stream size: 865 MiB (87%)
Writing library: x264 core 112

Audio

ID: 1
Format: AAC
Format/Info: Advanced Audio Codec
Format profile: LC
Codec ID: 40
Duration: 2h 1mn
Bit rate mode: Variable
Bit rate: 144 Kbps
Maximum bit rate: 1 588 Kbps
Channel(s): 6 channels
Channel positions: Front: L C R, Side: L R, LFE
Sampling rate: 44.1 KHz
Compression mode: Lossy
Delay relative to video: -51ms
Stream size: 125 MiB (13%)"
,CAPTAINBEYEO2,2012-07-27T18:00Z,"Thanks,
            D/L The sample,but out of SYNC
             and has an tinny Echo."
,dman81fay,2012-07-27T21:39Z,"A: 2 (can't hear shit) V:7 (it is ok but not as good as the MIB3) PS What the hell is wrong here, there is no good copy to batman or this movie and they were both way better than MIB3 WTF!!!"
